<?xml version="1.0" encoding="UTF-8"?>
<svg width="120mm" height="50mm" version="1.1" viewBox="0 0 425.2 177.17" xmlns="http://www.w3.org/2000/svg" xmlns:cc="http://creativecommons.org/ns#" xmlns:dc="http://purl.org/dc/elements/1.1/" xmlns:rdf="http://www.w3.org/1999/02/22-rdf-syntax-ns#">
 <defs>
  <clipPath id="clipPath3081">
   <path d="M 0,144.57 H 325.98 V 0 H 0 Z"/>
  </clipPath>
  <clipPath id="clipPath3073">
   <path d="m1.5796 1.5185h322.82v141.53h-322.82z"/>
  </clipPath>
 </defs>
 <metadata>
  <rdf:RDF>
   <cc:Work rdf:about="">
    <dc:format>image/svg+xml</dc:format>
    <dc:type rdf:resource="http://purl.org/dc/dcmitype/StillImage"/>
   </cc:Work>
  </rdf:RDF>
 </metadata>
 <g transform="matrix(1.25 0 0 -1.25 2.8587 181.25)" clip-path="url(#clipPath3073)">
  <g clip-path="url(#clipPath3081)">
   <g transform="translate(275 104.4)">
    <path d="m0 0v-12.052h2.834v1.034h-1.69v9.997h1.69v1.021zm8.331-4.457 0.64 0.736c-0.722 0.653-1.554 0.898-2.563 0.898-1.296 0.014-2.74-0.544-2.726-1.975 0-1.433 1.389-1.774 2.685-1.937 1.037-0.123 1.828-0.341 1.814-1.078-0.027-0.818-0.968-1.05-1.705-1.05-0.832 0-1.801 0.3-2.4 1.037l-0.64-0.778c0.763-0.953 1.88-1.266 3.013-1.266 1.514 0 2.794 0.667 2.821 2.016 0.028 1.664-1.607 1.91-2.835 2.06-0.846 0.095-1.664 0.3-1.678 0.996-0.014 0.668 0.737 0.995 1.664 0.982 0.696 0 1.31-0.123 1.896-0.655zm2.305 3.543c0-0.981 1.471-0.981 1.471-0.013 0 0.982-1.471 0.982-1.471 0.013m0.163-2.031h1.117v-6.762h-1.117zm3.082-2.113c0-0.968 1.457-0.968 1.457 0s-1.457 0.968-1.457 0m0-4.022c0-0.969 1.457-0.969 1.457 0 0 0.968-1.457 0.968-1.457 0m10.034 8.916h-1.103v-4.034c-0.477 0.913-1.569 1.348-2.523 1.348-1.91 0-3.395-1.225-3.395-3.49 0-2.223 1.485-3.49 3.408-3.49 0.996 0 1.978 0.436 2.524 1.362l0.054-1.225h1.048v9.543zm-3.545-3.72c1.337 0 2.401-0.983 2.401-2.428 0-1.474-1.05-2.456-2.387-2.456-1.309 0-2.373 0.887-2.373 2.442 0 1.582 1.064 2.442 2.373 2.442zm11.645-4.747-0.75 0.682c-0.45-0.546-1.377-0.846-2.141-0.846-1.295 0-2.318 0.778-2.441 2.02h5.727c0.259 2.686-1.309 3.952-3.368 3.952-2.031 0-3.49-1.457-3.49-3.489 0-2.142 1.459-3.518 3.545-3.518 1.05 0 2.223 0.395 2.904 1.199zm-0.668 2.795h-4.664c0.191 1.296 1.214 2.006 2.387 2.006 1.322 0 2.222-0.71 2.277-2.02zm3.721 5.672h-1.102v-9.543h1.102v3.176l3.178-3.176h1.363v0.082l-3.491 3.476 3.109 3.108v0.068h-1.391l-2.768-2.835zm9.874-4.293 0.64 0.736c-0.722 0.653-1.554 0.898-2.563 0.898-1.296 0.014-2.74-0.544-2.726-1.975 0-1.433 1.389-1.774 2.685-1.937 1.037-0.123 1.828-0.341 1.814-1.078-0.027-0.818-0.968-1.05-1.705-1.05-0.832 0-1.801 0.3-2.4 1.037l-0.64-0.778c0.763-0.953 1.88-1.266 3.013-1.266 1.514 0 2.794 0.667 2.821 2.016 0.028 1.664-1.607 1.91-2.835 2.06-0.846 0.095-1.664 0.3-1.678 0.996-0.014 0.668 0.737 0.995 1.664 0.982 0.696 0 1.31-0.123 1.896-0.655zm4.458-7.581v12.052h-2.835v-1.021h1.691v-9.997h-1.691v-1.034z" fill="#3f4243"/>
   </g>
  </g>
  <g transform="translate(188.3 143.05)">
   <path d="m0 0-51.327-141.02 1.41-0.513 51.327 141.02z" fill="#3f4243"/>
  </g>
  <g transform="translate(117.94 104.41)">
   <path d="m0 0-5.723-5.736v-41.144h9.87v19.739h29.609v-19.739h5.474l4.396 12.077v29.039l-5.783 5.764zm4.147-9.869h29.609v-7.402h-29.609zm-64.835 9.869v-46.88h49.348v9.869h-39.479v9.87h39.479v9.87h-39.479v7.402h39.479v9.869zm-55.674 0v-27.141h39.479v-9.87h-39.479v-9.869h49.348v29.609h-39.479v7.402h39.479v9.869z" fill="#f7d200"/>
  </g>
  <g transform="translate(312.68 87.078)">
   <path d="m0 0-12.955-16.038-12.953 16.038h-11.72l18.505-23.441-18.505-23.44h11.72l12.953 16.347 12.955-16.347h11.72l-18.506 23.44 18.506 23.441zm-92.594 0v-46.881h49.349v9.87h-39.478v9.87h39.478v9.869h-39.478v7.403h39.478v9.869zm-50.569 0-4.388-12.056v-34.825h43.632l5.716 5.717v35.431l-5.733 5.733zm5.481-9.869h29.609v-27.141h-29.609z" fill="#f7d200"/>
  </g>
 </g>
</svg>
